<svg id="Layer_1" data-name="Layer 1" xmlns="http://www.w3.org/2000/svg" viewBox="0 0 512 512"><defs><style>.cls-1{fill:#d9e4e8;}.cls-2{fill:#79d3d3;}.cls-3{fill:#141f38;}.cls-4{opacity:0.05;}.cls-5{fill:#231f20;}</style></defs><title>tv-filled</title><path class="cls-1" d="M185.2,473.6l3.21-2.12c24-15.89,36.46-59.56,39.59-87.48h52.8c3.13,27.92,15.54,71.59,39.59,87.48l3.21,2.12Z"/><rect class="cls-2" x="12.8" y="38.4" width="486.4" height="345.6" rx="51.2" ry="51.2"/><path class="cls-3" d="M448,25.6H64a64,64,0,0,0-64,64V332.8a64,64,0,0,0,64,64H213.08c-5,24.95-16.2,53.74-31.73,64H140.8a12.8,12.8,0,1,0,0,25.6H371.2a12.8,12.8,0,1,0,0-25.6H327.44c-15.53-10.26-26.73-39.05-31.73-64H448a64,64,0,0,0,64-64V89.6A64,64,0,0,0,448,25.6ZM293.09,460.8H215.71c12.24-18.75,19.77-43.41,23.36-64h30.65C273.32,417.39,280.85,442,293.09,460.8ZM64,371.2a38.44,38.44,0,0,1-38.4-38.4V89.6A38.44,38.44,0,0,1,64,51.2H448a38.44,38.44,0,0,1,38.4,38.4V332.8A38.44,38.44,0,0,1,448,371.2Z"/><g class="cls-4"><path class="cls-5" d="M512,332.8V89.6a64,64,0,0,0-64-64L76.8,396.8H448A64,64,0,0,0,512,332.8Z"/></g></svg>